<svg width="352" height="352" viewBox="0 0 352 352" fill="none" xmlns="http://www.w3.org/2000/svg">
<path d="M176 352C273.202 352 352 273.202 352 176C352 78.7979 273.202 0 176 0C78.7979 0 0 78.7979 0 176C0 273.202 78.7979 352 176 352Z" fill="white"/>
<path d="M176 276.946C231.751 276.946 276.946 231.751 276.946 176C276.946 120.249 231.751 75.0544 176 75.0544C120.249 75.0544 75.0545 120.249 75.0545 176C75.0545 231.751 120.249 276.946 176 276.946Z" fill="#E9E5DC"/>
<path d="M230.472 55.579L228.31 56.3875L227.536 54.1728L230.77 53.0479L242.916 27.9125L244.955 28.8969L240.965 37.1405L243.004 38.1249C244.147 38.6698 244.92 39.531 245.324 40.7263C245.729 41.9215 245.658 43.064 245.113 44.2066L238.997 56.8797C238.452 58.0222 237.59 58.7956 236.413 59.1999C235.235 59.6041 234.075 59.5338 232.932 58.9889C232.3 58.6901 231.755 58.2331 231.315 57.6355C230.894 57.0203 230.612 56.3348 230.472 55.579ZM232.897 53.8916C232.634 54.4365 232.616 55.0165 232.827 55.6141C233.038 56.2117 233.407 56.6512 233.969 56.9148C234.514 57.1785 235.094 57.2136 235.692 56.9851C236.307 56.7742 236.729 56.3875 236.993 55.8426L243.127 43.1695C243.391 42.6246 243.408 42.0446 243.198 41.4469C242.987 40.8317 242.617 40.4099 242.055 40.1462L240.016 39.1619L232.897 53.8916Z" fill="black"/>
<path d="M252.566 45.3667C254.13 44.6987 255.607 44.7866 256.996 45.6127L258.367 46.4213L257.206 48.3724L255.835 47.5638C255.22 47.1947 254.482 47.142 253.621 47.3529C252.759 47.5814 252.144 48.0032 251.775 48.6009L242.758 63.7524L240.807 62.5923L250.492 46.3334L249.666 42.9938L251.881 42.5543L252.566 45.3667Z" fill="black"/>
<path d="M257.453 68.8673L258.015 72.2421L255.695 72.6288L255.326 70.4141C253.761 70.8535 252.39 70.6426 251.213 69.7989C250.193 69.0606 249.578 68.0763 249.367 66.8459C249.156 65.6155 249.437 64.4906 250.158 63.4535L253.076 59.3932C253.814 58.3737 254.798 57.7585 256.029 57.5476C257.259 57.3367 258.384 57.6179 259.421 58.3386L261.267 59.6569L263.921 55.9657C264.272 55.4735 264.396 54.911 264.29 54.2783C264.185 53.6455 263.886 53.1533 263.394 52.8018L261.741 51.6065L263.06 49.7609L264.729 50.9562C265.749 51.6944 266.364 52.6787 266.575 53.9091C266.786 55.1395 266.505 56.2645 265.784 57.3015L257.453 68.8673ZM259.931 61.5025L258.085 60.1842C257.593 59.8326 257.031 59.7096 256.398 59.8151C255.765 59.9205 255.273 60.2193 254.921 60.7115L252.004 64.7718C251.652 65.264 251.529 65.8264 251.634 66.4592C251.74 67.092 252.039 67.5842 252.531 67.9357C253.023 68.2872 253.586 68.4103 254.218 68.3048C254.851 68.1994 255.343 67.9005 255.695 67.4084L259.931 61.5025Z" fill="black"/>
<path d="M271.391 60.9927L271.163 57.5828L273.518 57.4246L273.659 59.6744C275.17 59.3229 276.524 59.6744 277.701 60.6939C278.651 61.52 279.16 62.5571 279.248 63.8051C279.318 65.053 278.949 66.1428 278.123 67.092L265.837 81.0834L264.132 79.5893L276.418 65.5979C276.822 65.1409 276.998 64.596 276.963 63.9457C276.928 63.2953 276.664 62.7856 276.225 62.3813C275.785 61.977 275.223 61.8013 274.573 61.8364C273.94 61.8716 273.413 62.1352 273.008 62.5747L260.722 76.5661L259.017 75.072L271.391 60.9927Z" fill="black"/>
<path d="M270.899 86.9542C270.038 86.0226 269.633 84.9504 269.669 83.7024C269.704 82.4544 270.196 81.3998 271.11 80.5385L281.41 70.9414C282.324 70.0801 283.414 69.6759 284.662 69.711C285.91 69.7637 286.965 70.2383 287.826 71.1699L289.373 72.8222L296.069 66.5823L297.616 68.2521L277.192 87.2882L277.069 90.7157L274.713 90.6278L274.784 88.3779C273.272 88.5713 271.954 88.0967 270.899 86.9542ZM287.72 74.369L286.174 72.7167C285.752 72.2773 285.242 72.0488 284.592 72.0136C283.941 71.9785 283.414 72.1894 282.957 72.5937L272.657 82.1908C272.217 82.6126 271.989 83.1399 271.954 83.7727C271.936 84.4231 272.129 84.9504 272.534 85.4074C272.938 85.8644 273.465 86.0753 274.116 86.1105C274.766 86.1281 275.293 85.9347 275.75 85.5304L287.72 74.369Z" fill="black"/>
<path d="M294.945 79.273L297.054 81.9447L279.248 96.0416L277.842 94.2663L293.872 81.5756L293.169 80.6792L294.945 79.273ZM299.093 77.4274L300.868 76.0212L302.274 77.7965L300.499 79.2027L299.093 77.4274Z" fill="black"/>
<path d="M297.968 89.6786L298.636 86.3214L300.938 86.7784L300.499 88.9756C302.046 89.0283 303.259 89.7138 304.137 91.0145C304.841 92.0691 305.069 93.1941 304.823 94.4245C304.577 95.6549 303.927 96.6216 302.89 97.3071L287.404 107.642L286.138 105.762L301.624 95.4264C302.134 95.0924 302.45 94.6002 302.573 93.9675C302.696 93.3347 302.591 92.7722 302.257 92.2625C301.923 91.7528 301.431 91.4364 300.815 91.3133C300.2 91.1903 299.62 91.2957 299.11 91.6297L283.625 101.965L282.359 100.084L297.968 89.6786Z" fill="black"/>
<path d="M291.306 119.472C290.199 120.07 289.039 120.175 287.844 119.806C286.648 119.437 285.752 118.699 285.172 117.591L284.205 115.781L286.209 114.708L287.176 116.519C287.457 117.046 287.914 117.415 288.529 117.609C289.144 117.802 289.724 117.749 290.252 117.468L292.255 116.396L291.183 114.392C290.586 113.285 290.48 112.125 290.849 110.929C291.218 109.734 291.957 108.838 293.064 108.258L305.491 101.649C306.598 101.051 307.758 100.946 308.954 101.315C310.149 101.684 311.045 102.422 311.625 103.529C311.977 104.197 312.153 104.883 312.153 105.604C312.153 106.324 311.977 107.027 311.625 107.73L313.84 108.346L313.155 110.595L309.885 109.594L291.306 119.472ZM308.69 107.66C309.217 107.379 309.586 106.922 309.78 106.307C309.973 105.691 309.92 105.111 309.639 104.584C309.358 104.057 308.901 103.688 308.286 103.494C307.671 103.301 307.091 103.354 306.563 103.635L294.136 110.244C293.609 110.525 293.24 110.982 293.046 111.597C292.853 112.213 292.906 112.793 293.187 113.32L294.259 115.324L308.69 107.66Z" fill="black"/>
<path d="M299.603 129.175L297.511 128.225L298.53 126.099L301.624 127.575L327.972 118.329L328.728 120.474L320.08 123.497L320.836 125.642C321.258 126.837 321.187 127.997 320.66 129.122C320.115 130.247 319.254 131.02 318.059 131.442L304.77 136.1C303.575 136.522 302.415 136.451 301.29 135.907C300.165 135.362 299.392 134.5 298.97 133.305C298.741 132.637 298.671 131.934 298.776 131.213C298.882 130.493 299.163 129.807 299.603 129.175ZM302.503 129.684C301.923 129.878 301.501 130.282 301.22 130.862C300.938 131.442 300.903 132.022 301.097 132.584C301.29 133.147 301.677 133.586 302.257 133.85C302.837 134.131 303.417 134.166 303.979 133.973L317.268 129.315C317.848 129.122 318.269 128.718 318.551 128.137C318.832 127.557 318.867 126.977 318.674 126.415L317.918 124.27L302.503 129.684Z" fill="black"/>
<path d="M322.471 137.524C324.052 138.156 325.037 139.264 325.441 140.828L325.828 142.375L323.631 142.937L323.244 141.391C323.068 140.705 322.594 140.143 321.82 139.686C321.047 139.229 320.309 139.088 319.623 139.264L302.538 143.623L301.976 141.426L320.309 136.733L322.066 133.78L323.947 135.028L322.471 137.524Z" fill="black"/>
<path d="M309.34 157.597L307.354 160.392L305.438 159.021L306.739 157.193C305.333 156.402 304.507 155.294 304.261 153.853C304.05 152.605 304.313 151.48 305.034 150.46C305.755 149.441 306.739 148.826 307.987 148.632L312.909 147.806C314.157 147.595 315.281 147.859 316.301 148.58C317.32 149.3 317.936 150.285 318.129 151.533L318.498 153.765L322.98 153.027C323.578 152.921 324.07 152.622 324.439 152.095C324.808 151.568 324.949 151.005 324.843 150.408L324.509 148.386L326.742 148.017L327.076 150.039C327.287 151.287 327.023 152.412 326.302 153.431C325.582 154.451 324.597 155.066 323.349 155.259L309.34 157.597ZM316.283 154.134L315.914 151.902C315.809 151.304 315.51 150.812 314.983 150.443C314.455 150.074 313.893 149.933 313.295 150.039L308.374 150.865C307.776 150.97 307.284 151.269 306.915 151.796C306.546 152.324 306.405 152.886 306.51 153.484C306.616 154.081 306.915 154.574 307.442 154.943C307.969 155.312 308.532 155.452 309.129 155.347L316.283 154.134Z" fill="black"/>
<path d="M324.755 161.85L327.005 159.267L328.781 160.813L327.304 162.501C328.622 163.327 329.325 164.522 329.431 166.069C329.519 167.335 329.15 168.424 328.324 169.373C327.497 170.305 326.46 170.832 325.195 170.903L306.616 172.133L306.475 169.866L325.054 168.635C325.652 168.6 326.162 168.336 326.601 167.844C327.023 167.352 327.216 166.825 327.181 166.21C327.146 165.612 326.882 165.085 326.39 164.663C325.916 164.241 325.371 164.048 324.755 164.083L306.176 165.313L306.036 163.046L324.755 161.85Z" fill="black"/>
<path d="M306.071 179.955C306.106 178.689 306.598 177.635 307.495 176.791C308.409 175.93 309.498 175.525 310.746 175.578L324.826 176.053C326.091 176.088 327.146 176.562 327.99 177.477C328.833 178.391 329.255 179.48 329.202 180.728L329.132 182.996L338.29 183.295L338.219 185.562L310.307 184.63L307.793 186.968L306.176 185.246L307.811 183.716C306.616 182.767 306.018 181.519 306.071 179.955ZM326.882 182.925L326.952 180.658C326.97 180.06 326.759 179.515 326.32 179.041C325.88 178.566 325.353 178.32 324.755 178.303L310.676 177.828C310.078 177.81 309.534 178.021 309.059 178.461C308.584 178.9 308.338 179.428 308.321 180.025C308.303 180.623 308.514 181.168 308.953 181.642C309.393 182.117 309.92 182.363 310.518 182.381L326.882 182.925Z" fill="black"/>
<path d="M328.552 191.38L328.165 194.772L305.596 192.206L305.86 189.956L326.162 192.259L326.285 191.134L328.552 191.38ZM332.788 193.015L335.038 193.278L334.774 195.528L332.524 195.265L332.788 193.015Z" fill="black"/>
<path d="M323.332 200.977L326.179 199.079L327.497 201.03L325.634 202.278C326.689 203.42 327.076 204.756 326.777 206.286C326.531 207.516 325.898 208.483 324.861 209.186C323.824 209.889 322.681 210.1 321.451 209.871L303.188 206.268L303.628 204.036L321.89 207.639C322.488 207.762 323.05 207.639 323.578 207.27C324.105 206.918 324.439 206.444 324.544 205.846C324.667 205.248 324.544 204.686 324.175 204.159C323.824 203.631 323.349 203.297 322.752 203.174L304.489 199.571L304.928 197.339L323.332 200.977Z" fill="black"/>
<path d="M297.581 217.359C296.368 216.99 295.472 216.252 294.892 215.162C294.312 214.072 294.189 212.912 294.558 211.699L295.156 209.748L297.335 210.416L296.737 212.367C296.562 212.947 296.614 213.527 296.931 214.09C297.247 214.652 297.669 215.021 298.249 215.197L300.429 215.865L301.097 213.685C301.466 212.473 302.204 211.576 303.294 210.996C304.401 210.416 305.544 210.293 306.756 210.662L320.221 214.758C321.433 215.127 322.33 215.865 322.91 216.955C323.49 218.062 323.613 219.205 323.244 220.417C323.015 221.138 322.664 221.753 322.154 222.263C321.644 222.773 321.029 223.142 320.291 223.388L321.416 225.392L319.342 226.499L317.725 223.476L297.581 217.359ZM318.217 221.279C318.797 221.455 319.377 221.384 319.939 221.085C320.502 220.787 320.871 220.347 321.047 219.767C321.222 219.187 321.152 218.607 320.853 218.045C320.554 217.482 320.115 217.113 319.535 216.937L306.071 212.842C305.491 212.666 304.911 212.736 304.348 213.035C303.786 213.334 303.417 213.773 303.241 214.353L302.573 216.533L318.217 221.279Z" fill="black"/>
<path d="M296.614 230.067L295.806 227.923L298.021 227.132L299.163 230.366L324.351 242.424L323.367 244.481L315.106 240.526L314.121 242.582C313.576 243.725 312.715 244.498 311.537 244.902C310.36 245.324 309.2 245.254 308.057 244.709L295.366 238.627C294.224 238.083 293.451 237.221 293.046 236.044C292.624 234.866 292.695 233.706 293.24 232.563C293.538 231.931 293.995 231.386 294.575 230.946C295.173 230.489 295.841 230.208 296.614 230.067ZM298.302 232.475C297.757 232.212 297.177 232.194 296.579 232.405C295.982 232.616 295.542 233.003 295.279 233.548C295.015 234.092 294.997 234.673 295.208 235.27C295.419 235.868 295.806 236.307 296.351 236.571L309.041 242.653C309.586 242.916 310.166 242.934 310.764 242.723C311.362 242.512 311.801 242.125 312.065 241.58L313.049 239.524L298.302 232.475Z" fill="black"/>
<path d="M306.897 252.127C307.565 253.691 307.495 255.168 306.669 256.556L305.86 257.927L303.909 256.767L304.717 255.396C305.069 254.781 305.139 254.043 304.911 253.181C304.682 252.32 304.26 251.705 303.645 251.336L288.476 242.371L289.636 240.42L305.93 250.035L309.27 249.191L309.727 251.389L306.897 252.127Z" fill="black"/>
<path d="M283.414 257.101L280.039 257.663L279.652 255.343L281.867 254.974C281.428 253.427 281.621 252.039 282.482 250.861C283.221 249.842 284.205 249.209 285.435 249.016C286.666 248.822 287.791 249.068 288.828 249.806L292.906 252.707C293.925 253.445 294.558 254.412 294.751 255.642C294.962 256.873 294.699 257.997 293.96 259.034L292.642 260.88L296.333 263.517C296.825 263.868 297.388 263.991 298.021 263.886C298.653 263.78 299.146 263.482 299.497 262.989L300.675 261.32L302.52 262.638L301.343 264.308C300.604 265.327 299.638 265.96 298.39 266.153C297.159 266.364 296.034 266.101 294.997 265.362L283.414 257.101ZM290.779 259.544L292.097 257.699C292.449 257.206 292.572 256.644 292.466 256.011C292.361 255.378 292.062 254.886 291.57 254.535L287.492 251.635C287 251.283 286.437 251.16 285.804 251.265C285.172 251.371 284.68 251.67 284.328 252.162C283.976 252.654 283.853 253.216 283.959 253.849C284.064 254.482 284.363 254.974 284.855 255.326L290.779 259.544Z" fill="black"/>
<path d="M291.341 270.987L294.751 270.758L294.91 273.114L292.66 273.272C293.011 274.784 292.677 276.137 291.64 277.315C290.814 278.264 289.777 278.774 288.529 278.862C287.281 278.949 286.191 278.58 285.242 277.754L271.216 265.52L272.71 263.815L286.736 276.049C287.193 276.453 287.738 276.629 288.388 276.577C289.021 276.524 289.549 276.278 289.953 275.821C290.357 275.364 290.533 274.819 290.48 274.168C290.445 273.536 290.181 273.008 289.724 272.604L275.698 260.37L277.192 258.665L291.341 270.987Z" fill="black"/>
<path d="M265.345 270.635C266.259 269.774 267.349 269.37 268.597 269.405C269.845 269.44 270.899 269.932 271.76 270.846L281.393 281.111C282.254 282.025 282.658 283.115 282.623 284.363C282.588 285.611 282.096 286.666 281.182 287.527L279.53 289.074L285.787 295.753L284.135 297.3L265.028 276.928L261.601 276.823L261.671 274.467L263.921 274.538C263.728 273.008 264.202 271.69 265.345 270.635ZM277.965 287.422L279.617 285.875C280.057 285.453 280.285 284.926 280.303 284.293C280.32 283.66 280.127 283.115 279.705 282.676L270.073 272.411C269.651 271.971 269.124 271.743 268.491 271.725C267.858 271.708 267.313 271.901 266.874 272.323C266.435 272.745 266.206 273.272 266.188 273.905C266.171 274.538 266.364 275.082 266.786 275.522L277.965 287.422Z" fill="black"/>
<path d="M273.132 294.611L270.477 296.738L256.328 278.985L258.103 277.561L270.846 293.539L271.725 292.835L273.132 294.611ZM274.995 298.759L276.418 300.534L274.643 301.94L273.219 300.165L274.995 298.759Z" fill="black"/>
<path d="M262.743 297.669L266.1 298.319L265.643 300.622L263.446 300.183C263.394 301.729 262.726 302.942 261.425 303.821C260.37 304.524 259.245 304.753 258.015 304.524C256.784 304.278 255.818 303.645 255.115 302.591L244.727 287.14L246.607 285.875L256.995 301.325C257.329 301.835 257.822 302.134 258.454 302.257C259.087 302.38 259.65 302.274 260.159 301.94C260.669 301.606 260.968 301.114 261.091 300.481C261.214 299.849 261.108 299.286 260.775 298.776L250.386 283.326L252.267 282.061L262.743 297.669Z" fill="black"/>
<path d="M232.88 291.13C232.282 290.023 232.159 288.863 232.528 287.668C232.897 286.473 233.636 285.576 234.743 284.978L236.553 284.012L237.626 286.016L235.833 286.982C235.305 287.263 234.936 287.72 234.76 288.336C234.585 288.951 234.62 289.531 234.901 290.058L235.973 292.062L237.977 290.99C239.084 290.392 240.245 290.269 241.44 290.638C242.635 291.007 243.531 291.728 244.129 292.853L250.773 305.262C251.371 306.37 251.494 307.53 251.125 308.725C250.756 309.92 250.035 310.817 248.91 311.414C248.242 311.766 247.557 311.942 246.836 311.942C246.115 311.942 245.412 311.766 244.709 311.432L244.094 313.647L241.844 312.961L242.828 309.674L232.88 291.13ZM244.744 308.479C245.026 309.006 245.483 309.376 246.098 309.551C246.713 309.745 247.293 309.692 247.82 309.393C248.348 309.112 248.717 308.655 248.91 308.04C249.103 307.424 249.051 306.844 248.752 306.317L242.108 293.908C241.826 293.38 241.369 293.011 240.754 292.835C240.139 292.642 239.559 292.695 239.032 292.976L237.028 294.048L244.744 308.479Z" fill="black"/>
<path d="M223.247 299.444L224.197 297.335L226.323 298.355L224.847 301.448L234.18 327.761L232.036 328.517L228.978 319.887L226.833 320.642C225.638 321.064 224.478 321.012 223.353 320.467C222.228 319.922 221.454 319.061 221.033 317.883L216.322 304.612C215.9 303.417 215.953 302.257 216.498 301.132C217.043 300.007 217.904 299.234 219.082 298.812C219.749 298.583 220.453 298.513 221.173 298.601C221.929 298.724 222.615 299.005 223.247 299.444ZM222.755 302.345C222.544 301.782 222.158 301.343 221.578 301.079C220.997 300.798 220.417 300.763 219.855 300.974C219.275 301.185 218.853 301.571 218.589 302.151C218.308 302.731 218.273 303.311 218.484 303.874L223.195 317.145C223.406 317.725 223.792 318.147 224.372 318.41C224.952 318.674 225.532 318.727 226.095 318.516L228.239 317.76L222.755 302.345Z" fill="black"/>
<path d="M214.986 322.33C214.353 323.912 213.264 324.914 211.699 325.318L210.153 325.722L209.59 323.525L211.137 323.121C211.822 322.945 212.385 322.47 212.842 321.697C213.299 320.924 213.422 320.185 213.246 319.5L208.817 302.432L211.014 301.87L215.76 320.185L218.713 321.943L217.482 323.824L214.986 322.33Z" fill="black"/>
<path d="M194.825 309.27L192.03 307.284L193.401 305.368L195.229 306.669C196.02 305.262 197.128 304.419 198.569 304.19C199.817 303.979 200.942 304.243 201.961 304.964C202.981 305.684 203.596 306.669 203.807 307.917L204.651 312.838C204.862 314.086 204.598 315.211 203.877 316.231C203.157 317.25 202.172 317.865 200.924 318.076L198.692 318.463L199.448 322.945C199.553 323.543 199.87 324.035 200.379 324.404C200.907 324.773 201.469 324.914 202.067 324.808L204.088 324.474L204.475 326.707L202.454 327.041C201.206 327.251 200.081 326.988 199.061 326.267C198.042 325.546 197.426 324.562 197.216 323.314L194.825 309.27ZM198.305 316.213L200.538 315.826C201.135 315.721 201.627 315.404 201.997 314.895C202.366 314.367 202.506 313.805 202.401 313.207L201.557 308.286C201.452 307.688 201.135 307.196 200.625 306.827C200.098 306.458 199.536 306.317 198.938 306.423C198.34 306.528 197.848 306.844 197.479 307.354C197.11 307.864 196.969 308.444 197.075 309.042L198.305 316.213Z" fill="black"/>
<path d="M190.624 324.72L193.208 326.97L191.661 328.745L189.974 327.269C189.148 328.587 187.97 329.308 186.406 329.413C185.158 329.501 184.05 329.132 183.101 328.306C182.152 327.48 181.642 326.443 181.554 325.195L180.271 306.616L182.539 306.458L183.822 325.037C183.857 325.634 184.121 326.144 184.613 326.583C185.105 327.023 185.632 327.199 186.247 327.146C186.863 327.093 187.372 326.847 187.794 326.355C188.216 325.863 188.409 325.335 188.357 324.72L187.074 306.141L189.341 305.983L190.624 324.72Z" fill="black"/>
<path d="M172.52 306.089C173.785 306.124 174.84 306.598 175.701 307.512C176.562 308.426 176.967 309.499 176.932 310.764L176.51 324.843C176.475 326.109 176 327.164 175.086 328.025C174.172 328.886 173.1 329.29 171.834 329.255L169.567 329.185L169.286 338.343L167.018 338.272L167.844 310.36L165.489 307.864L167.211 306.247L168.758 307.881C169.707 306.633 170.955 306.036 172.52 306.089ZM169.637 326.9L171.905 326.97C172.502 326.988 173.047 326.777 173.522 326.337C173.996 325.898 174.225 325.371 174.242 324.773L174.664 310.694C174.682 310.096 174.471 309.551 174.031 309.077C173.592 308.602 173.065 308.374 172.467 308.356C171.869 308.338 171.325 308.549 170.867 308.989C170.393 309.428 170.164 309.955 170.129 310.553L169.637 326.9Z" fill="black"/>
<path d="M159.495 332.841L159.249 335.091L156.999 334.845L157.245 332.595L159.495 332.841ZM161.095 328.587L157.702 328.218L160.198 305.649L162.448 305.895L160.216 326.214L161.341 326.337L161.095 328.587Z" fill="black"/>
<path d="M151.55 323.42L153.466 326.267L151.515 327.585L150.267 325.722C149.142 326.794 147.806 327.181 146.26 326.882C145.029 326.636 144.045 326.003 143.359 324.966C142.674 323.929 142.428 322.787 142.674 321.556L146.207 303.276L148.439 303.716L144.906 321.996C144.783 322.593 144.906 323.156 145.275 323.683C145.644 324.211 146.119 324.544 146.699 324.65C147.279 324.755 147.859 324.65 148.386 324.281C148.914 323.912 149.248 323.437 149.353 322.857L152.886 304.577L155.118 305.016L151.55 323.42Z" fill="black"/>
<path d="M135.01 297.704C135.379 296.491 136.1 295.595 137.207 294.997C138.315 294.4 139.457 294.294 140.67 294.663L142.621 295.243L141.971 297.423L140.02 296.843C139.44 296.667 138.859 296.737 138.297 297.036C137.735 297.335 137.365 297.774 137.19 298.354L136.539 300.534L138.719 301.184C139.932 301.554 140.828 302.274 141.408 303.382C142.006 304.489 142.111 305.631 141.742 306.844L137.682 320.326C137.313 321.539 136.592 322.435 135.485 323.033C134.395 323.63 133.235 323.736 132.022 323.367C131.301 323.156 130.686 322.787 130.176 322.277C129.667 321.767 129.297 321.152 129.034 320.414L127.03 321.556L125.923 319.482L128.946 317.865L135.01 297.704ZM131.161 318.357C130.985 318.937 131.055 319.517 131.354 320.08C131.653 320.642 132.092 321.011 132.672 321.187C133.252 321.363 133.832 321.293 134.395 320.994C134.957 320.695 135.326 320.256 135.502 319.676L139.563 306.194C139.738 305.614 139.668 305.034 139.369 304.471C139.07 303.909 138.631 303.54 138.051 303.364L135.871 302.714L131.161 318.357Z" fill="black"/>
<path d="M122.302 296.773L124.446 295.947L125.237 298.161L122.003 299.321L110.015 324.545L107.959 323.578L111.896 315.299L109.84 314.332C108.697 313.787 107.924 312.926 107.502 311.748C107.08 310.571 107.15 309.411 107.695 308.268L113.742 295.56C114.287 294.417 115.148 293.644 116.326 293.222C117.503 292.8 118.663 292.87 119.806 293.415C120.439 293.714 120.984 294.171 121.423 294.751C121.862 295.331 122.161 296.017 122.302 296.773ZM119.894 298.478C120.157 297.933 120.175 297.353 119.964 296.755C119.753 296.157 119.366 295.718 118.822 295.454C118.277 295.191 117.697 295.173 117.099 295.384C116.501 295.595 116.062 295.982 115.798 296.527L109.752 309.235C109.488 309.78 109.47 310.36 109.681 310.957C109.892 311.555 110.279 311.994 110.824 312.258L112.88 313.225L119.894 298.478Z" fill="black"/>
<path d="M100.33 307.161C98.766 307.829 97.2895 307.776 95.8833 306.95L94.5123 306.141L95.6548 304.19L97.0259 304.999C97.6411 305.35 98.3793 305.421 99.2406 305.192C100.102 304.964 100.717 304.542 101.086 303.927L109.998 288.722L111.966 289.865L102.404 306.194L103.266 309.534L101.069 309.991L100.33 307.161Z" fill="black"/>
<path d="M95.2682 283.695L94.6882 280.32L97.0084 279.916L97.3951 282.131C98.9419 281.691 100.313 281.885 101.508 282.728C102.545 283.449 103.16 284.433 103.371 285.664C103.582 286.894 103.319 288.019 102.598 289.056L99.7153 293.134C98.9946 294.171 98.0103 294.786 96.7799 294.997C95.5495 295.208 94.4245 294.945 93.3875 294.224L91.5419 292.906L88.9229 296.614C88.5714 297.107 88.4483 297.669 88.5538 298.302C88.6592 298.935 88.9581 299.427 89.4678 299.778L91.1376 300.956L89.8193 302.802L88.1495 301.624C87.1125 300.903 86.4972 299.919 86.2863 298.689C86.0754 297.458 86.3391 296.333 87.0597 295.296L95.2682 283.695ZM92.8426 291.06L94.7058 292.378C95.1979 292.73 95.7604 292.853 96.3932 292.747C97.026 292.642 97.5181 292.343 97.8697 291.851L100.752 287.773C101.104 287.281 101.227 286.718 101.121 286.086C101.016 285.453 100.717 284.961 100.225 284.609C99.7328 284.258 99.1704 284.135 98.5376 284.24C97.9048 284.346 97.4127 284.644 97.0611 285.154L92.8426 291.06Z" fill="black"/>
<path d="M81.3999 291.658L81.646 295.068L79.2906 295.243L79.1324 292.994C77.6208 293.345 76.2673 293.011 75.0897 291.992C74.1405 291.166 73.6132 290.128 73.5253 288.881C73.4374 287.633 73.8065 286.543 74.6327 285.576L86.8312 271.497L88.5538 272.991L76.3552 287.07C75.951 287.527 75.7752 288.072 75.8279 288.722C75.8806 289.355 76.1267 289.882 76.5837 290.287C77.0407 290.673 77.5856 290.867 78.236 290.814C78.8688 290.761 79.3961 290.515 79.7828 290.058L91.9813 275.979L93.7039 277.473L81.3999 291.658Z" fill="black"/>
<path d="M81.6811 265.661C82.5424 266.575 82.9642 267.665 82.9291 268.913C82.8939 270.161 82.4193 271.216 81.5053 272.077L71.2754 281.744C70.3614 282.606 69.2716 283.027 68.0236 282.992C66.7757 282.957 65.721 282.483 64.8598 281.568L63.2778 279.899L56.6161 286.191L55.0517 284.539L75.3533 265.362L75.4588 261.935L77.8141 262.005L77.7438 264.255C79.2906 264.044 80.6089 264.519 81.6811 265.661ZM64.9301 278.352L66.4944 280.004C66.9163 280.444 67.4436 280.672 68.0764 280.69C68.7091 280.707 69.254 280.514 69.6935 280.092L79.9234 270.425C80.3628 270.003 80.5913 269.475 80.6089 268.843C80.6265 268.21 80.4331 267.665 80.0113 267.226C79.5894 266.786 79.0621 266.558 78.4293 266.54C77.779 266.522 77.2516 266.716 76.8122 267.138L64.9301 278.352Z" fill="black"/>
<path d="M53.5752 275.399L51.7999 276.823L50.3762 275.047L52.1515 273.624L53.5752 275.399ZM57.7234 273.536L55.5966 270.882L73.2968 256.662L74.7205 258.437L58.778 271.233L59.4811 272.112L57.7234 273.536Z" fill="black"/>
<path d="M54.6298 263.148L53.9795 266.505L51.6593 266.065L52.0811 263.851C50.5343 263.798 49.3039 263.13 48.4251 261.847C47.722 260.81 47.4759 259.667 47.722 258.437C47.9505 257.206 48.6008 256.24 49.6379 255.537L65.0531 245.096L66.3186 246.977L50.9035 257.417C50.3937 257.751 50.0949 258.244 49.9719 258.876C49.8488 259.509 49.9543 260.072 50.3058 260.581C50.6574 261.091 51.132 261.39 51.7647 261.513C52.3975 261.636 52.96 261.53 53.4521 261.179L68.8673 250.738L70.1329 252.619L54.6298 263.148Z" fill="black"/>
<path d="M61.063 233.266C62.1704 232.669 63.3305 232.546 64.5257 232.897C65.721 233.249 66.6174 233.987 67.215 235.094L68.1818 236.887L66.178 237.96L65.2112 236.167C64.93 235.639 64.473 235.27 63.8578 235.094C63.2426 234.919 62.6625 234.954 62.1352 235.253L60.1314 236.325L61.2036 238.329C61.8013 239.436 61.9243 240.596 61.5728 241.791C61.2212 242.987 60.483 243.883 59.3756 244.481L46.9837 251.16C45.8764 251.758 44.7163 251.881 43.521 251.529C42.3258 251.178 41.4293 250.439 40.8317 249.332C40.4802 248.664 40.2868 247.979 40.2868 247.258C40.2868 246.537 40.4626 245.834 40.7966 245.131L38.5818 244.516L39.2498 242.266L42.5367 243.25L61.063 233.266ZM43.7671 245.184C43.2398 245.465 42.8707 245.922 42.6949 246.537C42.5191 247.152 42.5543 247.732 42.8531 248.26C43.1343 248.787 43.5913 249.156 44.2065 249.332C44.8217 249.508 45.4018 249.473 45.9291 249.174L58.321 242.494C58.8483 242.213 59.2174 241.756 59.3932 241.141C59.5865 240.526 59.5338 239.946 59.235 239.418L58.1628 237.415L43.7671 245.184Z" fill="black"/>
<path d="M52.7139 223.634L54.8232 224.566L53.8213 226.693L50.7101 225.234L24.4147 234.655L23.6413 232.511L32.2541 229.417L31.4807 227.273C31.0589 226.077 31.1116 224.935 31.6389 223.792C32.1662 222.667 33.0275 221.894 34.2227 221.455L47.4759 216.709C48.6712 216.287 49.8137 216.34 50.9562 216.867C52.0811 217.394 52.8545 218.256 53.2939 219.451C53.54 220.119 53.5928 220.822 53.5049 221.542C53.417 222.298 53.1533 222.984 52.7139 223.634ZM49.7961 223.142C50.3586 222.931 50.7804 222.544 51.0616 221.964C51.3429 221.384 51.378 220.804 51.1671 220.242C50.9562 219.679 50.5695 219.257 49.9894 218.976C49.4094 218.695 48.8294 218.66 48.2669 218.871L35.0137 223.617C34.4512 223.827 34.0294 224.214 33.7482 224.794C33.4669 225.374 33.4318 225.954 33.6427 226.517L34.4161 228.661L49.7961 223.142Z" fill="black"/>
<path d="M29.7933 215.443C28.2113 214.81 27.2094 213.721 26.8052 212.156L26.4009 210.61L28.598 210.029L29.0023 211.559C29.1781 212.244 29.6702 212.807 30.4436 213.264C31.217 213.721 31.9553 213.844 32.6408 213.668L49.6906 209.186L50.2706 211.383L31.9377 216.199L30.1975 219.17L28.3168 217.939L29.7933 215.443Z" fill="black"/>
<path d="M42.7828 195.247L44.7515 192.452L46.6674 193.806L45.3667 195.651C46.7904 196.425 47.6165 197.55 47.8626 198.991C48.0735 200.239 47.8275 201.364 47.1068 202.383C46.3861 203.403 45.4018 204.018 44.1714 204.229L39.2498 205.073C38.0018 205.284 36.8769 205.038 35.8574 204.317C34.8379 203.596 34.2227 202.612 34.0118 201.381L33.6251 199.149L29.1429 199.923C28.5453 200.028 28.0707 200.344 27.684 200.872C27.2973 201.399 27.1743 201.962 27.2798 202.559L27.6313 204.581L25.399 204.967L25.0475 202.946C24.8365 201.698 25.0826 200.573 25.8033 199.553C26.5239 198.534 27.5083 197.919 28.7562 197.708L42.7828 195.247ZM35.875 198.745L36.2617 200.977C36.3672 201.575 36.6835 202.049 37.2109 202.436C37.7382 202.823 38.3006 202.946 38.8983 202.84L43.8199 201.997C44.4175 201.891 44.8921 201.575 45.2612 201.047C45.6303 200.52 45.7709 199.958 45.6655 199.36C45.56 198.762 45.2436 198.288 44.7163 197.919C44.189 197.55 43.6265 197.409 43.0289 197.514L35.875 198.745Z" fill="black"/>
<path d="M27.3325 191.099L25.1002 193.683L23.3249 192.136L24.8014 190.431C23.4831 189.622 22.7624 188.427 22.6394 186.863C22.5515 185.597 22.9206 184.507 23.7292 183.558C24.5377 182.609 25.5924 182.099 26.8403 182.011L45.4194 180.658L45.5776 182.925L27.0161 184.279C26.4185 184.332 25.9088 184.595 25.4693 185.07C25.0475 185.562 24.8541 186.107 24.9069 186.705C24.9596 187.302 25.2232 187.812 25.6978 188.234C26.19 188.656 26.7349 188.849 27.3325 188.796L45.9115 187.443L46.0697 189.71L27.3325 191.099Z" fill="black"/>
<path d="M45.9115 172.889C45.8764 174.154 45.4018 175.209 44.5054 176.07C43.5914 176.932 42.5191 177.336 41.2536 177.301L27.1743 176.914C25.9087 176.879 24.8541 176.404 23.9928 175.508C23.1316 174.594 22.7273 173.522 22.7624 172.256L22.8152 169.989L13.6575 169.743L13.7102 167.475L41.6227 168.231L44.1187 165.876L45.7358 167.581L44.1011 169.127C45.3491 170.077 45.9467 171.325 45.9115 172.889ZM25.0826 170.059L25.0123 172.326C24.9947 172.924 25.2057 173.469 25.6451 173.926C26.0845 174.401 26.6118 174.629 27.2095 174.647L41.2887 175.033C41.8864 175.051 42.4313 174.84 42.8883 174.401C43.3629 173.961 43.5914 173.434 43.6089 172.836C43.6265 172.239 43.4156 171.694 42.9762 171.219C42.5367 170.762 42.0094 170.516 41.4118 170.498L25.0826 170.059Z" fill="black"/>
<path d="M19.124 159.987L16.8741 159.741L17.1202 157.491L19.3701 157.737L19.124 159.987ZM23.3601 161.587L23.7292 158.194L46.3159 160.62L46.0698 162.888L25.7506 160.708L25.6276 161.833L23.3601 161.587Z" fill="black"/>
<path d="M28.5102 152.007L25.6803 153.941L24.362 151.99L26.2252 150.724C25.153 149.599 24.7663 148.263 25.0651 146.734C25.2936 145.486 25.9439 144.519 26.9634 143.816C28.0005 143.113 29.1254 142.885 30.3734 143.113L48.6712 146.594L48.2493 148.826L29.9515 145.346C29.3539 145.24 28.7914 145.363 28.2641 145.715C27.7368 146.084 27.4028 146.558 27.2974 147.156C27.1919 147.754 27.315 148.316 27.6665 148.843C28.018 149.371 28.5102 149.705 29.1078 149.81L47.4056 153.29L46.9838 155.523L28.5102 152.007Z" fill="black"/>
<path d="M54.1553 135.432C55.3681 135.784 56.2645 136.522 56.8621 137.612C57.4598 138.701 57.5828 139.861 57.2137 141.074L56.6336 143.025L54.4541 142.375L55.0341 140.424C55.2099 139.844 55.1396 139.264 54.8408 138.701C54.542 138.139 54.085 137.77 53.5049 137.594L51.3253 136.944L50.675 139.123C50.3234 140.336 49.5852 141.232 48.4954 141.83C47.4056 142.428 46.2455 142.551 45.0327 142.182L31.5335 138.174C30.3206 137.805 29.4242 137.084 28.8266 135.994C28.229 134.905 28.1059 133.745 28.475 132.532C28.686 131.811 29.0551 131.196 29.5648 130.686C30.0746 130.176 30.6898 129.79 31.428 129.544L30.2855 127.54L32.3596 126.415L33.9943 129.421L54.1553 135.432ZM33.4845 131.653C32.9045 131.477 32.3244 131.547 31.762 131.846C31.1995 132.145 30.8304 132.602 30.6546 133.182C30.4788 133.762 30.5491 134.342 30.848 134.905C31.1468 135.467 31.6038 135.836 32.1838 136.012L45.6831 140.02C46.2631 140.195 46.8432 140.125 47.4056 139.826C47.9681 139.527 48.3372 139.07 48.513 138.49L49.1634 136.311L33.4845 131.653Z" fill="black"/>
<path d="M55.0516 122.706L55.8777 124.851L53.663 125.642L52.5029 122.407L27.2446 110.508L28.2113 108.451L36.4901 112.353L37.4569 110.297C38.0018 109.154 38.8455 108.381 40.0232 107.959C41.2008 107.537 42.3609 107.59 43.5034 108.135L56.2469 114.128C57.3894 114.673 58.1628 115.517 58.5846 116.695C59.0065 117.872 58.9537 119.033 58.4089 120.175C58.11 120.808 57.6706 121.353 57.073 121.81C56.4754 122.267 55.8074 122.566 55.0516 122.706ZM53.3291 120.316C53.874 120.579 54.454 120.597 55.0516 120.368C55.6492 120.157 56.0887 119.771 56.3523 119.226C56.616 118.681 56.6336 118.101 56.4226 117.503C56.2117 116.906 55.825 116.466 55.2801 116.203L42.5367 110.209C41.9918 109.945 41.4118 109.928 40.8141 110.138C40.2165 110.349 39.7771 110.736 39.5134 111.281L38.5467 113.338L53.3291 120.316Z" fill="black"/>
<path d="M44.6108 100.717C43.9253 99.1527 43.9956 97.6762 44.8042 96.2701L45.6127 94.899L47.5813 96.0416L46.7728 97.4126C46.4213 98.0278 46.3509 98.766 46.5794 99.6273C46.8079 100.489 47.2298 101.104 47.845 101.455L63.0844 110.332L61.9419 112.3L45.5951 102.774L42.273 103.635L41.7985 101.438L44.6108 100.717Z" fill="black"/>
<path d="M68.0763 95.5846L71.4511 94.9869L71.8554 97.3071L69.6407 97.6938C70.0977 99.2406 69.9044 100.612 69.0607 101.824C68.34 102.862 67.3557 103.477 66.1253 103.688C64.8949 103.899 63.7699 103.652 62.7329 102.932L58.6374 100.067C57.6003 99.3461 56.9851 98.3618 56.7742 97.1314C56.5633 95.901 56.8094 94.776 57.53 93.739L58.8308 91.8758L55.122 89.2744C54.6298 88.9228 54.0673 88.7998 53.4346 88.9228C52.8018 89.0283 52.3096 89.3447 51.9581 89.8368L50.7804 91.5067L48.9172 90.206L50.0949 88.5361C50.8156 87.4991 51.7999 86.8839 53.0303 86.673C54.2607 86.462 55.3856 86.7081 56.4227 87.4288L68.0763 95.5846ZM60.6939 93.1941L59.3932 95.0573C59.0417 95.5494 58.9186 96.1119 59.0417 96.7447C59.1471 97.3774 59.4635 97.8696 59.9557 98.2211L64.0512 101.086C64.5433 101.438 65.1058 101.561 65.7386 101.438C66.3713 101.332 66.8635 101.016 67.2151 100.524C67.5666 100.032 67.6896 99.4691 67.5666 98.8363C67.4436 98.2036 67.1447 97.7114 66.6526 97.3599L60.6939 93.1941Z" fill="black"/>
<path d="M60.0611 81.7514L56.6512 82.015L56.4754 79.6597L58.7253 79.4839C58.3562 77.9723 58.6901 76.6189 59.7096 75.4412C60.5357 74.492 61.5728 73.9647 62.8032 73.8592C64.0512 73.7714 65.1585 74.1405 66.1077 74.949L80.2221 87.0948L78.7456 88.8174L64.6312 76.6716C64.1742 76.2673 63.6293 76.1091 62.9789 76.1443C62.3462 76.197 61.8189 76.4431 61.4322 76.9001C61.0455 77.3571 60.8697 77.902 60.9048 78.5523C60.9576 79.1851 61.2037 79.7124 61.6607 80.0991L75.7751 92.2449L74.2986 93.9675L60.0611 81.7514Z" fill="black"/>
<path d="M86.0226 81.9799C85.1086 82.8588 84.0188 83.263 82.7708 83.2279C81.5229 83.1927 80.4682 82.7182 79.5894 81.8041L69.8868 71.5918C69.0255 70.6778 68.6036 69.6056 68.6388 68.34C68.674 67.0921 69.1485 66.0374 70.0625 65.1586L71.7148 63.5942L65.4046 56.95L67.0569 55.3857L86.3038 75.617L89.7314 75.7049L89.6786 78.0602L87.4288 78.0075C87.6221 79.5894 87.1651 80.9077 86.0226 81.9799ZM73.2792 65.2816L71.6269 66.846C71.1875 67.2678 70.959 67.7951 70.9414 68.4279C70.9238 69.0607 71.1172 69.6056 71.539 70.045L81.2416 80.2398C81.6635 80.6792 82.1908 80.9077 82.8236 80.9253C83.4563 80.9429 84.0012 80.7495 84.4407 80.3277C84.8801 79.9058 85.1086 79.3785 85.1262 78.7457C85.1437 78.1129 84.9504 77.568 84.5285 77.1286L73.2792 65.2816Z" fill="black"/>
<path d="M76.2321 53.874L74.8083 52.1163L76.5836 50.6925L78.0074 52.4502L76.2321 53.874ZM78.1128 58.0046L80.767 55.8602L95.0396 73.5252L93.2819 74.949L80.433 59.0592L79.5542 59.7799L78.1128 58.0046Z" fill="black"/>
<path d="M88.4835 54.8935L85.1086 54.2607L85.5481 51.9405L87.7628 52.3624C87.798 50.8156 88.4659 49.5852 89.7666 48.7063C90.8036 48.0032 91.9462 47.7572 93.1766 47.9857C94.407 48.2142 95.3737 48.8645 96.0768 49.9016L106.57 65.2816L104.69 66.5647L94.196 51.1847C93.8621 50.6925 93.3699 50.3761 92.7371 50.2531C92.1043 50.1301 91.5419 50.2531 91.0497 50.5871C90.54 50.921 90.2412 51.4132 90.1181 52.046C89.9951 52.6788 90.1181 53.2412 90.4521 53.7334L100.946 69.1134L99.0649 70.3965L88.4835 54.8935Z" fill="black"/>
<path d="M118.347 61.2564C118.945 62.3637 119.068 63.5238 118.716 64.7191C118.365 65.9143 117.626 66.8108 116.519 67.426L114.726 68.4103L113.636 66.4241L115.429 65.4397C115.957 65.1585 116.326 64.7015 116.501 64.0863C116.677 63.4711 116.625 62.8911 116.343 62.3637L115.253 60.3775L113.267 61.4673C112.16 62.0649 111 62.2056 109.805 61.8364C108.609 61.4849 107.713 60.7467 107.098 59.6393L100.366 47.265C99.768 46.1576 99.645 44.9975 99.9965 43.8023C100.348 42.607 101.086 41.7106 102.194 41.0954C102.862 40.7263 103.547 40.5505 104.268 40.5505C104.988 40.5505 105.692 40.7087 106.395 41.0602L106.992 38.8455L109.26 39.5135L108.293 42.8004L118.347 61.2564ZM106.359 43.9956C106.078 43.4683 105.621 43.0992 105.006 42.9234C104.391 42.7476 103.811 42.8004 103.283 43.0816C102.756 43.3628 102.387 43.8199 102.211 44.4351C102.035 45.0503 102.088 45.6303 102.369 46.1576L109.101 58.5319C109.4 59.0592 109.84 59.4284 110.455 59.6041C111.07 59.7799 111.65 59.7272 112.177 59.4459L114.164 58.3562L106.359 43.9956Z" fill="black"/>
<path d="M127.944 52.8721L127.012 54.9814L124.886 53.9795L126.345 50.8683L116.835 24.608L118.962 23.8347L122.073 32.4475L124.2 31.6741C125.378 31.2346 126.538 31.2874 127.68 31.8147C128.805 32.342 129.596 33.2033 130.018 34.3809L134.817 47.6165C135.239 48.8118 135.203 49.9543 134.676 51.0968C134.149 52.2218 133.288 53.0127 132.11 53.4346C131.442 53.6807 130.739 53.751 130.018 53.6455C129.28 53.5752 128.594 53.3115 127.944 52.8721ZM128.419 49.9543C128.63 50.5168 129.016 50.9386 129.596 51.2199C130.176 51.4835 130.756 51.5187 131.319 51.3253C131.881 51.1144 132.303 50.7277 132.584 50.1477C132.866 49.5676 132.883 48.9876 132.69 48.4251L127.891 35.1895C127.68 34.627 127.294 34.2052 126.714 33.9239C126.134 33.6427 125.554 33.6251 124.991 33.8185L122.864 34.5919L128.419 49.9543Z" fill="black"/>
<path d="M136.065 29.9339C136.68 28.352 137.77 27.3501 139.334 26.9282L140.863 26.5239L141.443 28.7211L139.914 29.1253C139.229 29.3011 138.666 29.7933 138.227 30.5667C137.787 31.3401 137.647 32.0783 137.84 32.7638L142.375 49.7785L140.178 50.3585L135.309 32.0783L132.338 30.3382L133.551 28.4398L136.065 29.9339Z" fill="black"/>
<path d="M156.296 42.8532L159.108 44.8218L157.755 46.7553L155.909 45.4722C155.136 46.8959 154.029 47.722 152.587 47.9857C151.339 48.1966 150.214 47.9505 149.195 47.2474C148.175 46.5444 147.543 45.56 147.332 44.3121L146.47 39.3905C146.259 38.1425 146.506 37.0175 147.209 35.9981C147.929 34.9786 148.896 34.3458 150.144 34.1349L152.376 33.7482L151.585 29.2836C151.48 28.686 151.164 28.2114 150.636 27.8423C150.109 27.4732 149.546 27.3501 148.949 27.4556L146.927 27.8071L146.541 25.5748L148.562 25.2233C149.81 25.0124 150.935 25.2584 151.954 25.9615C152.974 26.6822 153.607 27.6489 153.818 28.8969L156.296 42.8532ZM152.763 35.9453L150.531 36.332C149.933 36.4375 149.459 36.7539 149.089 37.2812C148.72 37.8085 148.597 38.371 148.703 38.9686L149.564 43.8902C149.669 44.4878 149.986 44.9624 150.513 45.3315C151.04 45.7007 151.603 45.8237 152.201 45.7182C152.798 45.6128 153.273 45.2964 153.642 44.7691C154.011 44.2418 154.152 43.6793 154.029 43.0817L152.763 35.9453Z" fill="black"/>
<path d="M160.444 27.3852L157.843 25.1529L159.372 23.36L161.077 24.819C161.886 23.5007 163.063 22.7624 164.628 22.657C165.876 22.5691 166.983 22.9206 167.932 23.7292C168.881 24.5377 169.409 25.5748 169.497 26.8403L170.903 45.4018L168.635 45.5776L167.229 27.0161C167.176 26.4185 166.913 25.9087 166.421 25.4869C165.928 25.065 165.384 24.8893 164.786 24.9244C164.188 24.9771 163.679 25.2408 163.257 25.7154C162.835 26.19 162.659 26.7524 162.694 27.3501L164.1 45.9115L161.833 46.0873L160.444 27.3852Z" fill="black"/>
<path d="M178.602 45.894C177.336 45.8588 176.281 45.4018 175.42 44.4878C174.559 43.5914 174.137 42.5016 174.172 41.236L174.488 27.1567C174.524 25.8912 174.981 24.8365 175.895 23.9753C176.791 23.114 177.881 22.6921 179.146 22.7273L181.414 22.78L181.625 13.6223L183.892 13.675L183.259 41.5876L185.632 44.0659L183.927 45.7006L182.381 44.0835C181.414 45.3315 180.166 45.9291 178.602 45.894ZM181.344 25.065L179.076 25.0123C178.478 24.9947 177.934 25.2232 177.477 25.6627C177.02 26.1021 176.773 26.6294 176.756 27.2446L176.44 41.3239C176.422 41.9215 176.633 42.4664 177.09 42.9234C177.529 43.3804 178.057 43.6265 178.672 43.6441C179.269 43.6617 179.814 43.4507 180.271 42.9937C180.728 42.5543 180.974 42.027 180.992 41.4294L181.344 25.065Z" fill="black"/>
<path d="M189.939 23.3249L193.331 23.6764L190.976 46.2631L188.726 46.0346L190.835 25.7154L189.71 25.5923L189.939 23.3249ZM191.521 19.0712L191.749 16.8038L194.017 17.0323L193.788 19.2821L191.521 19.0712Z" fill="black"/>
<path d="M199.483 28.4223L197.55 25.5923L199.501 24.2565L200.766 26.1021C201.891 25.0299 203.227 24.6432 204.756 24.9244C206.004 25.1529 206.971 25.7857 207.674 26.8227C208.377 27.8598 208.623 28.9847 208.395 30.2327L204.967 48.5305L202.735 48.1087L206.145 29.8108C206.25 29.2132 206.127 28.6508 205.776 28.1234C205.407 27.5961 204.932 27.2797 204.334 27.1567C203.737 27.0512 203.174 27.1743 202.647 27.5258C202.12 27.8949 201.803 28.3695 201.68 28.9671L198.27 47.265L196.038 46.8431L199.483 28.4223Z" fill="black"/>
<path d="M216.199 54.0322C215.848 55.245 215.109 56.1415 214.019 56.7391C212.93 57.3367 211.77 57.4597 210.557 57.1082L208.588 56.5282L209.221 54.3486L211.19 54.9286C211.77 55.1044 212.35 55.0341 212.912 54.7177C213.475 54.4189 213.844 53.9619 214.019 53.3818L214.652 51.2023L212.473 50.5695C211.26 50.218 210.363 49.4797 209.766 48.3899C209.168 47.3001 209.045 46.1401 209.397 44.9272L213.369 31.428C213.721 30.2152 214.459 29.3187 215.549 28.7211C216.638 28.1235 217.799 28.0004 219.011 28.352C219.732 28.5629 220.347 28.932 220.857 29.4242C221.367 29.9339 221.753 30.5491 222 31.2874L223.986 30.1448L225.111 32.219L222.105 33.8536L216.199 54.0322ZM219.908 33.3439C220.084 32.7638 220.013 32.1838 219.697 31.6213C219.398 31.0589 218.941 30.6897 218.361 30.514C217.781 30.3382 217.201 30.4085 216.638 30.7249C216.076 31.0237 215.707 31.4807 215.531 32.0608L211.559 45.56C211.383 46.1401 211.453 46.7201 211.77 47.2826C212.086 47.845 212.525 48.2142 213.105 48.3899L215.285 49.0403L219.908 33.3439Z" fill="black"/>
<path d="M141.742 207.041C139.246 207.041 137.084 206.162 135.344 204.405C133.586 202.647 132.708 200.503 132.708 198.007V154.029C132.708 151.533 133.586 149.371 135.344 147.63C137.102 145.873 139.246 144.994 141.742 144.994C144.238 144.994 146.383 145.873 148.14 147.63C149.898 149.388 150.777 151.533 150.777 154.029V198.024C150.777 200.52 149.898 202.682 148.14 204.422C146.383 206.162 144.238 207.041 141.742 207.041ZM141.742 146.136C139.527 146.136 137.699 146.892 136.153 148.439C134.606 149.986 133.85 151.814 133.85 154.029V198.024C133.85 200.239 134.606 202.067 136.153 203.614C137.699 205.16 139.527 205.916 141.742 205.916C143.957 205.916 145.767 205.16 147.332 203.614C148.878 202.067 149.634 200.239 149.634 198.024V154.029C149.634 151.814 148.878 150.003 147.332 148.439C145.767 146.892 143.957 146.136 141.742 146.136ZM141.742 202.823C140.459 202.823 139.334 202.331 138.367 201.381C137.401 200.432 136.926 199.29 136.926 198.007V154.029C136.926 152.745 137.418 151.62 138.367 150.654C139.317 149.687 140.459 149.212 141.742 149.212C143.025 149.212 144.15 149.705 145.117 150.654C146.084 151.603 146.558 152.745 146.558 154.029V198.024C146.558 199.307 146.066 200.432 145.117 201.399C144.168 202.366 143.025 202.823 141.742 202.823ZM141.742 150.373C140.758 150.373 139.932 150.724 139.193 151.462C138.455 152.201 138.104 153.044 138.104 154.011V198.007C138.104 198.991 138.455 199.817 139.193 200.555C139.932 201.294 140.775 201.645 141.742 201.645C142.709 201.645 143.553 201.294 144.291 200.555C145.029 199.817 145.381 198.973 145.381 198.007V154.029C145.381 153.044 145.029 152.218 144.291 151.48C143.553 150.742 142.726 150.373 141.742 150.373Z" fill="black"/>
<path d="M165.858 207.041C163.362 207.041 161.2 206.162 159.46 204.405C157.702 202.647 156.823 200.503 156.823 198.007V195.317H162.202V198.007C162.202 198.991 162.553 199.817 163.292 200.555C164.03 201.294 164.874 201.645 165.84 201.645C166.807 201.645 167.651 201.294 168.389 200.555C169.127 199.817 169.479 198.973 169.479 198.007V180.236C169.479 179.252 169.127 178.426 168.389 177.687C167.651 176.949 166.807 176.598 165.84 176.598H161.024V171.219H165.84C166.825 171.219 167.651 170.867 168.389 170.129C169.127 169.391 169.479 168.547 169.479 167.581V154.046C169.479 153.062 169.127 152.236 168.389 151.497C167.651 150.759 166.807 150.408 165.84 150.408C164.874 150.408 164.03 150.759 163.292 151.497C162.553 152.236 162.202 153.079 162.202 154.046V156.735H156.823V154.046C156.823 151.55 157.702 149.388 159.46 147.648C161.218 145.89 163.362 145.011 165.858 145.011C168.354 145.011 170.498 145.89 172.256 147.648C174.014 149.406 174.893 151.55 174.893 154.046V167.581C174.893 170.076 173.996 172.203 172.203 173.926C173.979 175.648 174.893 177.775 174.893 180.271V198.042C174.893 200.538 174.014 202.7 172.256 204.44C170.498 206.162 168.336 207.041 165.858 207.041ZM157.966 196.477V198.007C157.966 200.221 158.722 202.049 160.268 203.596C161.815 205.143 163.643 205.899 165.858 205.899C168.073 205.899 169.883 205.143 171.447 203.596C172.994 202.049 173.75 200.221 173.75 198.007V180.236C173.75 177.846 172.854 175.93 170.99 174.33L170.481 173.891L170.99 173.451C172.854 171.852 173.75 169.936 173.75 167.545V154.011C173.75 151.796 172.994 149.986 171.447 148.421C169.901 146.875 168.073 146.119 165.858 146.119C163.643 146.119 161.815 146.875 160.268 148.421C158.722 149.968 157.966 151.796 157.966 154.011V155.54H161.042V154.011C161.042 152.728 161.534 151.603 162.483 150.636C163.432 149.669 164.575 149.195 165.858 149.195C167.141 149.195 168.266 149.687 169.233 150.636C170.2 151.585 170.674 152.728 170.674 154.011V167.545C170.674 168.829 170.182 169.953 169.233 170.92C168.284 171.869 167.141 172.362 165.858 172.362H162.202V175.438H165.858C167.141 175.438 168.266 175.93 169.233 176.879C170.2 177.828 170.674 178.971 170.674 180.254V198.024C170.674 199.307 170.182 200.432 169.233 201.399C168.284 202.366 167.141 202.84 165.858 202.84C164.575 202.84 163.45 202.348 162.483 201.399C161.516 200.45 161.042 199.307 161.042 198.024V196.495H157.966V196.477Z" fill="black"/>
<path d="M191.38 206.197H186.001V154.275L183.312 156.103L180.412 151.743L191.38 144.467V206.197ZM187.144 205.055H190.22V146.611L182.011 152.06L183.628 154.486L187.144 152.077V205.055Z" fill="black"/>
<path d="M210.258 206.479H205.864V201.1H210.258C211.242 201.1 212.068 200.749 212.807 200.01C213.545 199.272 213.896 198.464 213.896 197.497V189.288H210.24C207.744 189.288 205.582 188.409 203.842 186.652C202.085 184.912 201.206 182.75 201.206 180.254V154.029C201.206 151.533 202.085 149.371 203.842 147.63C205.6 145.873 207.744 144.994 210.24 144.994C212.736 144.994 214.898 145.873 216.638 147.63C218.396 149.388 219.275 151.533 219.275 154.011V197.479C219.275 199.975 218.396 202.12 216.638 203.86C214.916 205.6 212.754 206.479 210.258 206.479ZM207.024 205.336H210.258C212.473 205.336 214.301 204.58 215.847 203.051C217.394 201.504 218.15 199.676 218.15 197.479V154.011C218.15 151.814 217.394 149.986 215.847 148.439C214.301 146.892 212.473 146.154 210.258 146.154C208.043 146.154 206.215 146.91 204.668 148.457C203.122 150.003 202.366 151.831 202.366 154.046V180.271C202.366 182.486 203.122 184.314 204.668 185.861C206.215 187.408 208.043 188.163 210.258 188.163H215.074V197.532C215.074 198.798 214.582 199.922 213.633 200.872C212.684 201.821 211.541 202.295 210.258 202.295H207.024V205.336ZM215.074 185.052H210.258C208.975 185.052 207.85 184.56 206.883 183.611C205.916 182.662 205.442 181.519 205.442 180.236V154.029C205.442 152.745 205.934 151.62 206.883 150.654C207.832 149.687 208.975 149.212 210.258 149.212C211.541 149.212 212.666 149.705 213.633 150.654C214.599 151.603 215.074 152.745 215.074 154.029V185.052ZM210.258 150.373C209.274 150.373 208.447 150.724 207.709 151.462C206.971 152.201 206.619 153.044 206.619 154.011V180.236C206.619 181.22 206.971 182.047 207.709 182.785C208.447 183.523 209.291 183.875 210.258 183.875H213.914V153.993C213.914 153.009 213.562 152.183 212.824 151.445C212.086 150.706 211.242 150.373 210.258 150.373Z" fill="black"/>
</svg>
