<svg width="85" height="60" viewBox="0 0 85 60" fill="none" xmlns="http://www.w3.org/2000/svg">
<path d="M8.65596 0.0410156C10.9679 0.0410156 12.9338 0.857813 14.5535 2.46372C16.1733 4.08347 16.9762 6.04932 16.9762 8.36127V51.6792C16.9762 53.9912 16.1594 55.957 14.5535 57.5768C12.9338 59.1965 10.9679 59.9995 8.65596 59.9995C6.344 59.9995 4.37815 59.1827 2.7584 57.5768C1.12481 55.957 0.321854 53.9912 0.321854 51.6792V8.36127C0.321854 6.04932 1.12481 4.08347 2.74456 2.46372C4.36431 0.843969 6.33016 0.0410156 8.65596 0.0410156ZM4.4889 51.6792C4.4889 52.7868 4.90423 53.7558 5.73487 54.6003C6.56551 55.431 7.53459 55.8463 8.65596 55.8463C9.77732 55.8463 10.7326 55.431 11.577 54.6003C12.4077 53.7697 12.823 52.8006 12.823 51.6792V8.36127C12.823 7.25375 12.4077 6.28467 11.577 5.44019C10.7464 4.60954 9.77732 4.19422 8.65596 4.19422C7.53459 4.19422 6.57935 4.60954 5.73487 5.44019C4.90423 6.27083 4.4889 7.23991 4.4889 8.36127V51.6792Z" fill="#fff"/>
<path d="M32.3846 25.8601C33.4921 25.8601 34.4612 25.4448 35.3057 24.6142C36.1363 23.7835 36.5517 22.8144 36.5517 21.6931V8.36127C36.5517 7.25375 36.1363 6.28467 35.3057 5.44019C34.4751 4.60954 33.506 4.19422 32.3846 4.19422C31.2771 4.19422 30.308 4.60954 29.4635 5.44019C28.6329 6.27083 28.2176 7.23991 28.2176 8.36127V10.4379H24.0505V8.36127C24.0505 6.04932 24.8535 4.08347 26.4732 2.46372C28.093 0.843969 30.0588 0.0410156 32.3708 0.0410156C34.6827 0.0410156 36.6486 0.857813 38.2683 2.46372C39.8881 4.08347 40.691 6.04932 40.691 8.36127V21.6931C40.691 24.185 39.7219 26.2754 37.7699 27.9367C39.7081 29.598 40.691 31.6885 40.691 34.1804V51.6654C40.691 53.9773 39.8742 55.9432 38.2683 57.5629C36.6486 59.1827 34.6827 59.9856 32.3708 59.9856C30.0588 59.9856 28.093 59.1688 26.4732 57.5629C24.8535 55.9432 24.0505 53.9773 24.0505 51.6654V49.5888H28.2176V51.6654C28.2176 52.7729 28.6329 53.742 29.4635 54.5865C30.2942 55.4171 31.2632 55.8324 32.3846 55.8324C33.4921 55.8324 34.4612 55.4171 35.3057 54.5865C36.1363 53.7558 36.5517 52.7867 36.5517 51.6654V34.1804C36.5517 33.0729 36.1363 32.1038 35.3057 31.2593C34.4751 30.4286 33.506 30.0133 32.3846 30.0133H28.2176V25.8463H32.3846V25.8601Z" fill="#fff"/>
<path d="M47.5161 6.27134L56.9578 0V59.1694H52.7907V7.53115L49.7312 9.60775L47.5161 6.27134Z" fill="#fff"/>
<path d="M80.2849 42.5145H76.1179C73.8059 42.5145 71.8401 41.7115 70.2203 40.0918C68.6006 38.472 67.7976 36.5062 67.7976 34.1942V8.36127C67.7976 6.04932 68.6006 4.08347 70.2203 2.46372C71.8401 0.843969 73.8059 0.0410156 76.1179 0.0410156C78.4298 0.0410156 80.3957 0.843969 82.0154 2.46372C83.6352 4.08347 84.4382 6.03548 84.4382 8.34743V51.1393C84.4382 53.4513 83.6214 55.4033 82.0154 57.023C80.3957 58.6428 78.4298 59.4457 76.1179 59.4457H72.3662V55.2787H76.1179C77.2254 55.2787 78.1945 54.8634 79.039 54.0466C79.8696 53.2159 80.2849 52.2607 80.2849 51.167V42.5145ZM80.2849 8.36127C80.2849 7.25375 79.8696 6.28467 79.039 5.44019C78.2083 4.60954 77.2393 4.19422 76.1179 4.19422C75.0104 4.19422 74.0413 4.60954 73.1968 5.44019C72.3662 6.27083 71.9508 7.23991 71.9508 8.36127V34.1804C71.9508 35.2879 72.3662 36.257 73.1968 37.1015C74.0274 37.9321 74.9965 38.3474 76.1179 38.3474H80.2849V8.36127Z" fill="#fff"/>
</svg>
